<svg width="16" height="16" viewBox="0 0 16 16" fill="none" xmlns="http://www.w3.org/2000/svg">
<path fill-rule="evenodd" clip-rule="evenodd" d="M10.9406 1.84566L10.9412 2.34541C12.7777 2.48934 13.9908 3.74071 13.9927 5.65975L14 11.2769C14.0026 13.3692 12.6882 14.6566 10.5812 14.6599L5.43459 14.6666C3.3408 14.6692 2.00988 13.3512 2.00724 11.253L2 5.70173C1.99737 3.77003 3.16768 2.52199 5.00411 2.35341L5.00346 1.85366C5.0028 1.56047 5.22001 1.33992 5.50963 1.33992C5.79924 1.33925 6.01645 1.55914 6.01711 1.85233L6.01777 2.31876L9.92759 2.31343L9.92693 1.847C9.92627 1.55381 10.1435 1.33392 10.4331 1.33325C10.7161 1.33259 10.9399 1.55248 10.9406 1.84566ZM3.01432 5.90763L12.9797 5.8943V5.66109C12.9514 4.22847 12.2327 3.47685 10.9426 3.3649L10.9432 3.87798C10.9432 4.1645 10.7201 4.39172 10.437 4.39172C10.1474 4.39239 9.92956 4.16583 9.92956 3.87931L9.9289 3.33958L6.01908 3.34491L6.01974 3.88398C6.01974 4.17116 5.80319 4.39772 5.51357 4.39772C5.22396 4.39838 5.00609 4.1725 5.00609 3.88531L5.00543 3.37223C3.7219 3.50083 3.01168 4.25512 3.01366 5.7004L3.01432 5.90763ZM10.1599 8.93611V8.94344C10.1665 9.24995 10.4166 9.4825 10.7201 9.47584C11.0163 9.46851 11.2526 9.21464 11.246 8.90813C11.2322 8.61494 10.9946 8.37573 10.699 8.37639C10.3962 8.38306 10.1593 8.6296 10.1599 8.93611ZM10.7036 11.9279C10.4008 11.9213 10.1566 11.6687 10.156 11.3622C10.1494 11.0557 10.3923 10.8018 10.6951 10.7945H10.7017C11.011 10.7945 11.2618 11.0471 11.2618 11.3602C11.2625 11.6734 11.0123 11.9273 10.7036 11.9279ZM7.44808 8.94677C7.46124 9.25329 7.71202 9.4925 8.0148 9.47917C8.311 9.46518 8.5473 9.21197 8.53414 8.90546C8.5269 8.60561 8.28336 8.37239 7.98716 8.37306C7.68438 8.38639 7.44742 8.64026 7.44808 8.94677ZM8.01744 11.898C7.71466 11.9113 7.46453 11.6721 7.45071 11.3656C7.45071 11.059 7.68701 10.8058 7.98979 10.7918C8.28599 10.7912 8.53019 11.0244 8.53677 11.3236C8.55059 11.6308 8.31364 11.884 8.01744 11.898ZM4.73622 8.97009C4.74938 9.27661 5.00016 9.51649 5.30294 9.50249C5.59914 9.48917 5.83544 9.23529 5.82162 8.92878C5.81504 8.62893 5.5715 8.39572 5.27464 8.39638C4.97186 8.40971 4.73556 8.66358 4.73622 8.97009ZM5.30558 11.9013C5.0028 11.9153 4.75267 11.6754 4.73885 11.3689C4.73819 11.0624 4.97515 10.8085 5.27793 10.7952C5.57413 10.7945 5.81833 11.0277 5.82491 11.3276C5.83873 11.6341 5.60243 11.888 5.30558 11.9013Z" fill="#003264" fill-opacity="0.8"/>
</svg>
