<svg width="20" height="20" viewBox="0 0 20 20" fill="none" xmlns="http://www.w3.org/2000/svg">
<path fill-rule="evenodd" clip-rule="evenodd" d="M13.4654 6.86063C13.4654 8.8187 11.9044 10.3888 9.95769 10.3888C8.01093 10.3888 6.44995 8.8187 6.44995 6.86063C6.44995 4.90181 8.01093 3.33325 9.95769 3.33325C11.9044 3.33325 13.4654 4.90181 13.4654 6.86063ZM9.95769 16.6666C7.09837 16.6666 4.6569 16.2133 4.6569 14.4001C4.6569 12.5861 7.0827 12.1163 9.95769 12.1163C12.817 12.1163 15.2585 12.5696 15.2585 14.3835C15.2585 16.1968 12.8327 16.6666 9.95769 16.6666ZM14.9644 6.92427C14.9644 7.92244 14.6667 8.85232 14.1444 9.62534C14.0906 9.7049 14.1384 9.81222 14.2332 9.82873C14.3637 9.85124 14.4988 9.864 14.6361 9.86775C16.0053 9.90378 17.2343 9.01743 17.5738 7.68303C18.0767 5.70095 16.6 3.9215 14.7197 3.9215C14.5152 3.9215 14.3197 3.94326 14.1294 3.98229C14.1033 3.98829 14.0757 4.0003 14.0608 4.02357C14.0429 4.05209 14.0563 4.09036 14.0742 4.11513C14.6391 4.91142 14.9644 5.88257 14.9644 6.92427ZM17.232 11.2604C18.152 11.4413 18.7572 11.8105 19.0079 12.3471C19.2198 12.7877 19.2198 13.2988 19.0079 13.7386C18.6244 14.5709 17.388 14.8381 16.9074 14.9071C16.8082 14.9221 16.7284 14.8358 16.7388 14.736C16.9843 12.4297 15.0316 11.3362 14.5264 11.0848C14.5048 11.0735 14.5003 11.0563 14.5025 11.0457C14.504 11.0382 14.513 11.0262 14.5294 11.024C15.6225 11.0037 16.7977 11.1538 17.232 11.2604ZM5.36442 9.86768C5.50172 9.86393 5.63603 9.85192 5.76735 9.82865C5.86212 9.81214 5.90987 9.70482 5.85615 9.62527C5.33383 8.85225 5.03611 7.92237 5.03611 6.9242C5.03611 5.88249 5.36144 4.91134 5.92629 4.11505C5.94419 4.09029 5.95688 4.05201 5.93972 4.02349C5.92479 4.00098 5.89644 3.98822 5.87107 3.98221C5.68005 3.94319 5.48455 3.92142 5.2801 3.92142C3.39976 3.92142 1.92309 5.70087 2.42675 7.68296C2.76626 9.01736 3.9952 9.9037 5.36442 9.86768ZM5.49761 11.0453C5.49985 11.0566 5.49537 11.0731 5.47448 11.0851C4.96858 11.3365 3.01585 12.43 3.26134 14.7355C3.27179 14.8361 3.1927 14.9217 3.09346 14.9074C2.61292 14.8384 1.37652 14.5712 0.99299 13.7389C0.780332 13.2983 0.780332 12.788 0.99299 12.3474C1.2437 11.8108 1.8481 11.4416 2.76813 11.2599C3.20314 11.1541 4.37761 11.004 5.4715 11.0243C5.48791 11.0265 5.49612 11.0385 5.49761 11.0453Z" fill="white"/>
</svg>
