<svg width="20" height="20" viewBox="0 0 20 20" fill="none" xmlns="http://www.w3.org/2000/svg">
<path fill-rule="evenodd" clip-rule="evenodd" d="M3.78317 1.66675H6.59984C7.77484 1.66675 8.7165 2.62508 8.7165 3.80091V6.64175C8.7165 7.82508 7.77484 8.77508 6.59984 8.77508H3.78317C2.6165 8.77508 1.6665 7.82508 1.6665 6.64175V3.80091C1.6665 2.62508 2.6165 1.66675 3.78317 1.66675ZM3.78317 11.2248H6.59984C7.77484 11.2248 8.7165 12.1757 8.7165 13.359V16.1998C8.7165 17.3748 7.77484 18.3332 6.59984 18.3332H3.78317C2.6165 18.3332 1.6665 17.3748 1.6665 16.1998V13.359C1.6665 12.1757 2.6165 11.2248 3.78317 11.2248ZM16.2166 1.66675H13.3999C12.2249 1.66675 11.2833 2.62508 11.2833 3.80091V6.64175C11.2833 7.82508 12.2249 8.77508 13.3999 8.77508H16.2166C17.3833 8.77508 18.3333 7.82508 18.3333 6.64175V3.80091C18.3333 2.62508 17.3833 1.66675 16.2166 1.66675ZM13.3999 11.2248H16.2166C17.3833 11.2248 18.3333 12.1757 18.3333 13.359V16.1998C18.3333 17.3748 17.3833 18.3332 16.2166 18.3332H13.3999C12.2249 18.3332 11.2833 17.3748 11.2833 16.1998V13.359C11.2833 12.1757 12.2249 11.2248 13.3999 11.2248Z" fill="white"/>
</svg>
