<svg width="20" height="20" viewBox="0 0 20 20" fill="none" xmlns="http://www.w3.org/2000/svg">
<path d="M10 4.5833C11.2727 4.58252 12.5047 5.03228 13.4775 5.85289L16.2025 3.25789C15.1564 2.29334 13.9 1.58588 12.5328 1.19166C11.1656 0.797439 9.72537 0.727304 8.32636 0.98682C6.92735 1.24634 5.60808 1.82836 4.47325 2.68671C3.33842 3.54505 2.41928 4.65609 1.78876 5.93164L4.86084 8.29955C5.21912 7.21917 5.90824 6.2789 6.83059 5.61193C7.75294 4.94495 8.86177 4.58509 10 4.5833Z" fill="#D94F3D"/>
<path d="M4.58334 9.99997C4.58411 9.42196 4.6778 8.84783 4.86084 8.29956L1.78876 5.93164C1.16036 7.19577 0.833344 8.58827 0.833344 9.99997C0.833344 11.4117 1.16036 12.8042 1.78876 14.0683L4.86084 11.7004C4.6778 11.1521 4.58411 10.578 4.58334 9.99997Z" fill="#F2C042"/>
<path d="M18.7917 8.33325H10.0417V12.0833H15C14.7051 13.1436 14.0293 14.0578 13.1021 14.6508L16.1504 17.0007C18.0984 15.2524 19.2429 12.4095 18.7917 8.33325Z" fill="#5085ED"/>
<path d="M13.1008 14.6509C12.1588 15.1901 11.0848 15.4553 10 15.4167C8.86177 15.4149 7.75294 15.055 6.83059 14.3881C5.90824 13.7211 5.21912 12.7808 4.86084 11.7004L1.78876 14.0684C2.54757 15.598 3.71811 16.8855 5.16873 17.7862C6.61936 18.6869 8.29251 19.165 10 19.1667C12.2468 19.2277 14.4369 18.4561 16.1492 17L13.1008 14.6509Z" fill="#57A75C"/>
</svg>
