<svg width="18" height="21" viewBox="0 0 18 21" fill="none" xmlns="http://www.w3.org/2000/svg">
<g clip-path="url(#clip0_278_46548)">
<path d="M9 3C4.05 3 0 7.05 0 12C0 16.95 4.05 21 9 21C13.95 21 18 16.95 18 12C18 7.05 13.95 3 9 3ZM13.1704 10.5454L8.67037 15.0454C8.451 15.2647 8.163 15.375 7.875 15.375C7.587 15.375 7.299 15.2647 7.07963 15.0454L4.82963 12.7954C4.38975 12.3555 4.38975 11.6445 4.82963 11.2046C5.2695 10.7648 5.9805 10.7648 6.42037 11.2046L7.875 12.6593L11.5796 8.95463C12.0195 8.51475 12.7305 8.51475 13.1704 8.95463C13.6102 9.3945 13.6102 10.1055 13.1704 10.5454Z" fill="#26AF51"/>
</g>
<defs>
<clipPath id="clip0_278_46548">
<rect width="18" height="18" fill="white" transform="translate(0 3)"/>
</clipPath>
</defs>
</svg>
