<svg width="20" height="20" viewBox="0 0 20 20" fill="none" xmlns="http://www.w3.org/2000/svg">
<g clip-path="url(#clip0_2098_3436)">
<path d="M10 0.625C4.83063 0.625 0.625 4.83063 0.625 10C0.625 15.1694 4.83063 19.375 10 19.375C15.1694 19.375 19.375 15.1694 19.375 10C19.375 4.83063 15.1694 0.625 10 0.625ZM10 15.625C9.48312 15.625 9.0625 15.2044 9.0625 14.6875C9.0625 14.1706 9.48312 13.75 10 13.75C10.5169 13.75 10.9375 14.1706 10.9375 14.6875C10.9375 15.2044 10.5169 15.625 10 15.625ZM11.8681 10.2819C11.2406 10.7438 10.7444 11.1088 10.6388 11.9525L10.5613 12.5725L9.32125 12.4175L9.39875 11.7975C9.57063 10.42 10.4338 9.785 11.1275 9.27437C11.8038 8.77687 12.2925 8.4175 12.3238 7.47813C12.3769 5.9 11.0013 5.65875 10.4081 5.62813C9.2825 5.5675 8.40125 6.22187 8.11063 7.33L7.95187 7.93437L6.7425 7.61688L6.90125 7.0125C7.34437 5.32375 8.75125 4.285 10.4719 4.38C12.4169 4.48 13.6337 5.7125 13.5731 7.52C13.5212 9.065 12.6044 9.74 11.8681 10.2819Z" fill="white"/>
</g>
<defs>
<clipPath id="clip0_2098_3436">
<rect width="20" height="20" fill="white"/>
</clipPath>
</defs>
</svg>
