<svg width="282" height="53" viewBox="0 0 282 53" fill="none" xmlns="http://www.w3.org/2000/svg">
<g clip-path="url(#clip0_278_45315)">
<path d="M80.5803 17.5383V23.1337H93.1873V28.8557H80.5803V35.461H95.2256V41.2252H74.4636V11.7742H95.2256V17.5383H80.5803Z" fill="white"/>
<path d="M120.357 19.6004V50.398H114.532V39.753C112.951 41.0573 110.912 41.7306 108.749 41.7306C102.965 41.7306 98.2218 36.9764 98.2218 30.4123C98.2218 23.8483 102.965 19.095 108.749 19.095C110.912 19.095 112.951 19.7683 114.532 21.0726V19.6004H120.357ZM114.532 34.031V26.7524C113.242 25.2802 111.536 24.5225 109.706 24.5225C106.46 24.5225 104.131 26.8368 104.131 30.4123C104.131 33.9879 106.461 36.3031 109.706 36.3031C111.536 36.3031 113.243 35.5454 114.532 34.031Z" fill="white"/>
<path d="M145.03 19.6003V41.2261H139.205V39.6273C137.457 41.016 135.294 41.7315 132.964 41.7315C128.097 41.7315 124.893 38.4917 124.893 32.7697V19.6003H130.718V31.5066C130.718 34.7042 132.132 36.303 134.588 36.303C136.211 36.303 137.875 35.5876 139.206 34.0309V19.6003H145.031H145.03Z" fill="white"/>
<path d="M149.107 13.4151C149.107 11.4796 150.688 9.83862 152.727 9.83862C154.765 9.83862 156.304 11.4796 156.304 13.4151C156.304 15.3505 154.681 17.0338 152.727 17.0338C150.772 17.0338 149.107 15.4349 149.107 13.4151ZM149.773 19.5994H155.598V41.2251H149.773V19.5994Z" fill="white"/>
<path d="M182.518 30.4123C182.518 36.9754 177.775 41.7306 171.992 41.7306C169.828 41.7306 167.789 41.0573 166.208 39.753V50.398H160.383V19.6004H166.208V21.0726C167.789 19.7683 169.827 19.095 171.992 19.095C177.775 19.095 182.518 23.807 182.518 30.4123ZM176.61 30.4123C176.61 26.8359 174.28 24.5225 171.035 24.5225C169.204 24.5225 167.499 25.2802 166.209 26.7524V34.031C167.499 35.5454 169.204 36.3031 171.035 36.3031C174.28 36.3031 176.61 33.9888 176.61 30.4123Z" fill="white"/>
<path d="M211.144 26.5001C211.144 35.672 204.944 41.2261 196.165 41.2261H186.513V11.7742H196.165C204.986 11.7742 211.144 17.2861 211.144 26.5001ZM204.819 26.5001C204.819 20.736 201.491 17.6649 195.999 17.6649H192.629V35.3354H195.999C201.49 35.3354 204.819 32.2643 204.819 26.5001Z" fill="white"/>
<path d="M236.232 19.6002V41.2259H230.407V39.7959C228.826 41.0581 226.829 41.7314 224.665 41.7314C218.84 41.7314 214.096 36.9771 214.096 30.4131C214.096 23.849 218.84 19.0957 224.665 19.0957C226.829 19.0957 228.826 19.769 230.407 21.0312V19.6011H236.232V19.6002ZM230.407 34.073V26.71C229.117 25.2378 227.369 24.5223 225.58 24.5223C222.376 24.5223 220.005 26.8366 220.005 30.4121C220.005 33.9877 222.377 36.3029 225.58 36.3029C227.369 36.3029 229.117 35.5874 230.407 34.073Z" fill="white"/>
<path d="M239.602 38.743L242.39 34.2832C244.719 35.9243 247.216 36.7654 249.339 36.7654C251.461 36.7654 252.459 36.0077 252.459 34.9143C252.459 34.1154 251.835 33.4843 249.921 33.0211L246.26 32.1377C241.933 31.1278 240.185 29.1924 240.185 26.1213C240.185 21.9138 243.513 19.095 249.047 19.095C252.542 19.095 255.787 20.2306 257.993 22.0826L255.122 26.2901C252.959 24.7757 250.836 24.018 248.84 24.018C246.843 24.018 245.969 24.7757 245.969 25.7434C245.969 26.5424 246.551 27.0478 248.465 27.5101L252.126 28.3934C256.495 29.4455 258.284 31.4223 258.284 34.5777C258.284 38.9109 254.996 41.7306 249.213 41.7306C245.51 41.7306 241.974 40.5941 239.602 38.743Z" fill="white"/>
<path d="M282 28.2245V41.2251H276.174V29.4867C276.174 26.1625 274.635 24.5224 272.139 24.5224C270.516 24.5224 268.851 25.2379 267.479 26.7945V41.2261H261.653V10.1753H267.479V21.2404C269.226 19.8104 271.431 19.0949 273.72 19.0949C278.63 19.0949 282 22.3769 282 28.2245Z" fill="white"/>
<path d="M45.39 0H30.2606L22.6955 13.25H37.8248L45.39 26.5L52.9552 13.25L45.39 0Z" fill="#26AF51"/>
<path d="M22.6955 13.25H7.56516L0 26.5L7.56516 39.75H22.6955L15.1303 26.5L22.6955 13.25Z" fill="#00A3FA"/>
<path d="M45.39 26.5L37.8248 39.75H22.6955L30.2606 53H45.39L52.9552 39.75L45.39 26.5Z" fill="#F7581F"/>
<path d="M37.8248 13.25H22.6945L15.1303 26.5L22.6945 39.75L37.8248 39.7491L45.3891 26.5L37.8248 13.25Z" fill="white"/>
<path d="M15.1303 26.5C24.4926 26.5 33.1446 31.5506 37.8258 39.75V13.25L15.1303 26.5Z" fill="#003264"/>
</g>
<defs>
<clipPath id="clip0_278_45315">
<rect width="282" height="53" fill="white"/>
</clipPath>
</defs>
</svg>
