<svg width="14" height="14" viewBox="0 0 14 14" fill="none" xmlns="http://www.w3.org/2000/svg">
<path fill-rule="evenodd" clip-rule="evenodd" d="M4.14271 7.73199C5.95652 7.33934 8.04348 7.33934 9.85731 7.73199C10.6917 7.91259 11.2872 8.56294 11.5088 9.32366L12.25 11.8683L11.0387 12.351C8.44878 13.383 5.55117 13.383 2.96127 12.351L1.75 11.8683L2.49121 9.32366C2.7128 8.56289 3.30828 7.91259 4.14271 7.73199Z" fill="#6E88A2"/>
<path fill-rule="evenodd" clip-rule="evenodd" d="M4.64169 3.75232C4.34154 2.25621 5.48965 0.875 6.99999 0.875C8.51032 0.875 9.65841 2.25621 9.35829 3.75232L9.14754 4.80305C8.94139 5.83052 8.03922 6.5625 6.99999 6.5625C5.96075 6.5625 5.05858 5.83052 4.85243 4.80305L4.64169 3.75232Z" fill="#6E88A2"/>
</svg>
