<svg width="16" height="16" viewBox="0 0 16 16" fill="none" xmlns="http://www.w3.org/2000/svg">
<path fill-rule="evenodd" clip-rule="evenodd" d="M8.00441 8.77664L8.24047 8.77563C9.17679 8.76752 10.0122 8.71108 10.5416 8.61374C10.5511 8.61374 11.0762 8.50756 11.251 8.43992C11.5036 8.33374 11.718 8.14174 11.8539 7.90102C11.9508 7.70829 12 7.50611 12 7.29448C11.9923 7.12812 11.9086 6.85376 11.8384 6.65794L11.776 6.49522C11.3479 5.41741 9.94896 3.35707 9.09345 2.56799L9.03365 2.50982L8.75344 2.25018C8.53901 2.08654 8.27685 2 7.99486 2C7.74224 2 7.48963 2.07709 7.28548 2.23127C7.21934 2.27743 7.13449 2.35178 7.06279 2.41795L6.79826 2.67066C5.91715 3.54031 4.68122 5.42323 4.27171 6.39922C4.2629 6.39922 4.00955 7.00576 4 7.29448V7.33303C4 7.77593 4.25262 8.18974 4.66091 8.40138C4.77254 8.45919 4.99119 8.51465 5.18322 8.55683L5.5458 8.63265C6.12888 8.71919 7.02332 8.77664 8.00441 8.77664ZM6.98777 12.9978C6.98777 13.5513 7.44087 14 7.99971 14C8.55855 14 9.01164 13.5513 9.01164 12.9978L8.79354 10.5317C8.79354 10.0975 8.43885 9.74551 7.99971 9.74551C7.5613 9.74551 7.20587 10.0975 7.20587 10.5317L6.98777 12.9978Z" fill="#06A60E"/>
</svg>
