<svg width="12" height="12" viewBox="0 0 12 12" fill="none" xmlns="http://www.w3.org/2000/svg">
<path fill-rule="evenodd" clip-rule="evenodd" d="M1 5.99976C1 3.24026 3.24 0.999756 6 0.999756C8.765 0.999756 11 3.24026 11 5.99976C11 8.76026 8.765 10.9998 6 10.9998C3.24 10.9998 1 8.76026 1 5.99976ZM5.56 4.10476C5.56 3.86526 5.76 3.66476 6 3.66476C6.24 3.66476 6.435 3.86526 6.435 4.10476V6.31476C6.435 6.55526 6.24 6.74976 6 6.74976C5.76 6.74976 5.56 6.55526 5.56 6.31476V4.10476ZM6.005 8.34026C5.76 8.34026 5.565 8.14026 5.565 7.90026C5.565 7.66026 5.76 7.46526 6 7.46526C6.245 7.46526 6.44 7.66026 6.44 7.90026C6.44 8.14026 6.245 8.34026 6.005 8.34026Z" fill="#6E88A2"/>
</svg>
