<svg width="20" height="20" viewBox="0 0 20 20" fill="none" xmlns="http://www.w3.org/2000/svg">
<path fill-rule="evenodd" clip-rule="evenodd" d="M11.8435 6.46868C11.8435 8.67181 10.0406 10.4374 7.79095 10.4374C5.54208 10.4374 3.73843 8.67181 3.73843 6.46868C3.73843 4.26554 5.54208 2.5 7.79095 2.5C10.0406 2.5 11.8435 4.26554 11.8435 6.46868ZM1.6665 14.9311C1.6665 12.8917 4.48778 12.3814 7.79095 12.3814C11.1121 12.3814 13.9154 12.9093 13.9154 14.9503C13.9154 16.9897 11.0941 17.5 7.79095 17.5C4.46984 17.5 1.6665 16.9722 1.6665 14.9311ZM13.4777 6.54062C13.4777 7.66255 13.1336 8.70942 12.5302 9.57902C12.4674 9.66845 12.5229 9.78903 12.6321 9.80819C12.7838 9.83295 12.9395 9.84812 13.0985 9.85131C14.6804 9.89204 16.1 8.89468 16.4922 7.39265C17.0736 5.16396 15.3678 3.16286 13.1947 3.16286C12.9591 3.16286 12.7332 3.18681 12.5131 3.23073C12.4829 3.23712 12.4503 3.25149 12.434 3.27705C12.4128 3.30979 12.4283 3.35211 12.4495 3.38006C13.1026 4.2768 13.4777 5.36839 13.4777 6.54062ZM16.0976 11.4186C17.1608 11.6222 17.8596 12.0366 18.1491 12.6411C18.3945 13.1362 18.3945 13.7112 18.1491 14.2062C17.7063 15.1421 16.2778 15.4432 15.7225 15.5206C15.6075 15.5366 15.5154 15.4408 15.5276 15.3274C15.8114 12.7338 13.5552 11.504 12.9713 11.2213C12.9469 11.2078 12.9412 11.1886 12.9436 11.1758C12.9452 11.1678 12.9558 11.1551 12.9746 11.1527C14.2376 11.1287 15.5961 11.2988 16.0976 11.4186Z" fill="white"/>
</svg>
